<svg width="496" height="288" viewBox="0 0 496 288" fill="none" xmlns="http://www.w3.org/2000/svg">
<g filter="url(#filter0_d_2_28)">
<path d="M489.043 141.537C490.393 142.901 490.393 145.099 489.043 146.463L371.484 265.171L373.261 266.93L371.484 265.171C370.827 265.834 369.932 266.208 368.998 266.208L127.002 266.208C126.068 266.208 125.173 265.834 124.515 265.17L6.95739 146.463C5.60659 145.099 5.60659 142.901 6.95742 141.537L124.516 22.8296C125.173 22.1658 126.068 21.7924 127.002 21.7924L368.998 21.7924C369.932 21.7924 370.827 22.1658 371.484 22.8296L489.043 141.537Z" stroke="#FDF6DF" stroke-width="5"/>
</g>
<mask id="path-2-outside-1_2_28" maskUnits="userSpaceOnUse" x="165.078" y="44.52" width="166" height="208" fill="black">
<rect fill="white" x="165.078" y="44.52" width="166" height="208"/>
<path d="M247.87 192.688C245.95 192.688 244.99 191.728 244.99 189.808C244.99 187.888 245.95 186.928 247.87 186.928C249.79 186.928 250.75 187.888 250.75 189.808C250.75 191.728 249.79 192.688 247.87 192.688ZM247.87 204.208C245.95 204.208 244.99 203.248 244.99 201.328C244.99 199.408 245.95 198.448 247.87 198.448C249.79 198.448 250.75 199.408 250.75 201.328C250.75 203.248 249.79 204.208 247.87 204.208ZM247.87 216.016C245.95 216.016 244.99 215.056 244.99 213.136C244.99 211.216 245.95 210.256 247.87 210.256C249.79 210.256 250.75 211.216 250.75 213.136C250.75 215.056 249.79 216.016 247.87 216.016ZM247.87 227.824C245.95 227.824 244.99 226.864 244.99 224.944C244.99 223.024 245.95 222.064 247.87 222.064C249.79 222.064 250.75 223.024 250.75 224.944C250.75 226.864 249.79 227.824 247.87 227.824ZM247.87 170.512C245.95 170.512 244.99 169.552 244.99 167.632C244.99 165.712 245.95 164.752 247.87 164.752C249.79 164.752 250.75 165.712 250.75 167.632C250.75 169.552 249.79 170.512 247.87 170.512ZM247.87 181.744C245.95 181.744 244.99 180.784 244.99 178.864C244.99 176.944 245.95 175.984 247.87 175.984C249.79 175.984 250.75 176.944 250.75 178.864C250.75 180.784 249.79 181.744 247.87 181.744ZM247.87 239.344C245.95 239.344 244.99 238.384 244.99 236.464C244.99 234.544 245.95 233.584 247.87 233.584C249.79 233.584 250.75 234.544 250.75 236.464C250.75 238.384 249.79 239.344 247.87 239.344ZM247.87 250.864C245.95 250.864 244.99 249.904 244.99 247.984C244.99 246.064 245.95 245.104 247.87 245.104C249.79 245.104 250.75 246.064 250.75 247.984C250.75 249.904 249.79 250.864 247.87 250.864ZM168.958 51.28C167.038 51.28 166.078 50.32 166.078 48.4C166.078 46.48 167.038 45.52 168.958 45.52C170.878 45.52 171.838 46.48 171.838 48.4C171.838 50.32 170.878 51.28 168.958 51.28ZM181.054 69.712C179.134 69.712 178.174 68.752 178.174 66.832C178.174 64.912 179.134 63.952 181.054 63.952C182.974 63.952 183.934 64.912 183.934 66.832C183.934 68.752 182.974 69.712 181.054 69.712ZM187.102 78.928C185.182 78.928 184.222 77.968 184.222 76.048C184.222 74.128 185.182 73.168 187.102 73.168C189.022 73.168 189.982 74.128 189.982 76.048C189.982 77.968 189.022 78.928 187.102 78.928ZM204.958 106.576C203.038 106.576 202.078 105.616 202.078 103.696C202.078 101.776 203.038 100.816 204.958 100.816C206.878 100.816 207.838 101.776 207.838 103.696C207.838 105.616 206.878 106.576 204.958 106.576ZM211.006 115.792C209.086 115.792 208.126 114.832 208.126 112.912C208.126 110.992 209.086 110.032 211.006 110.032C212.926 110.032 213.886 110.992 213.886 112.912C213.886 114.832 212.926 115.792 211.006 115.792ZM193.15 88.144C191.23 88.144 190.27 87.184 190.27 85.264C190.27 83.344 191.23 82.384 193.15 82.384C195.07 82.384 196.03 83.344 196.03 85.264C196.03 87.184 195.07 88.144 193.15 88.144ZM198.91 97.36C196.99 97.36 196.03 96.4 196.03 94.48C196.03 92.56 196.99 91.6 198.91 91.6C200.83 91.6 201.79 92.56 201.79 94.48C201.79 96.4 200.83 97.36 198.91 97.36ZM228.862 143.44C226.942 143.44 225.982 142.48 225.982 140.56C225.982 138.64 226.942 137.68 228.862 137.68C230.782 137.68 231.742 138.64 231.742 140.56C231.742 142.48 230.782 143.44 228.862 143.44ZM235.198 152.656C233.278 152.656 232.318 151.696 232.318 149.776C232.318 147.856 233.278 146.896 235.198 146.896C237.118 146.896 238.078 147.856 238.078 149.776C238.078 151.696 237.118 152.656 235.198 152.656ZM217.342 125.008C215.422 125.008 214.462 124.048 214.462 122.128C214.462 120.208 215.422 119.248 217.342 119.248C219.262 119.248 220.222 120.208 220.222 122.128C220.222 124.048 219.262 125.008 217.342 125.008ZM223.102 134.224C221.182 134.224 220.222 133.264 220.222 131.344C220.222 129.424 221.182 128.464 223.102 128.464C225.022 128.464 225.982 129.424 225.982 131.344C225.982 133.264 225.022 134.224 223.102 134.224ZM241.246 161.872C239.326 161.872 238.366 160.912 238.366 158.992C238.366 157.072 239.326 156.112 241.246 156.112C243.166 156.112 244.126 157.072 244.126 158.992C244.126 160.912 243.166 161.872 241.246 161.872ZM174.718 60.496C172.798 60.496 171.838 59.536 171.838 57.616C171.838 55.696 172.798 54.736 174.718 54.736C176.638 54.736 177.598 55.696 177.598 57.616C177.598 59.536 176.638 60.496 174.718 60.496ZM326.782 51.28C324.862 51.28 323.902 50.32 323.902 48.4C323.902 46.48 324.862 45.52 326.782 45.52C328.702 45.52 329.662 46.48 329.662 48.4C329.662 50.32 328.702 51.28 326.782 51.28ZM314.686 69.712C312.766 69.712 311.806 68.752 311.806 66.832C311.806 64.912 312.766 63.952 314.686 63.952C316.606 63.952 317.566 64.912 317.566 66.832C317.566 68.752 316.606 69.712 314.686 69.712ZM308.638 78.928C306.718 78.928 305.758 77.968 305.758 76.048C305.758 74.128 306.718 73.168 308.638 73.168C310.558 73.168 311.518 74.128 311.518 76.048C311.518 77.968 310.558 78.928 308.638 78.928ZM290.782 106.576C288.862 106.576 287.902 105.616 287.902 103.696C287.902 101.776 288.862 100.816 290.782 100.816C292.702 100.816 293.662 101.776 293.662 103.696C293.662 105.616 292.702 106.576 290.782 106.576ZM284.734 115.792C282.814 115.792 281.854 114.832 281.854 112.912C281.854 110.992 282.814 110.032 284.734 110.032C286.654 110.032 287.614 110.992 287.614 112.912C287.614 114.832 286.654 115.792 284.734 115.792ZM302.59 88.144C300.67 88.144 299.71 87.184 299.71 85.264C299.71 83.344 300.67 82.384 302.59 82.384C304.51 82.384 305.47 83.344 305.47 85.264C305.47 87.184 304.51 88.144 302.59 88.144ZM296.83 97.36C294.91 97.36 293.95 96.4 293.95 94.48C293.95 92.56 294.91 91.6 296.83 91.6C298.75 91.6 299.71 92.56 299.71 94.48C299.71 96.4 298.75 97.36 296.83 97.36ZM266.878 143.44C264.958 143.44 263.998 142.48 263.998 140.56C263.998 138.64 264.958 137.68 266.878 137.68C268.798 137.68 269.758 138.64 269.758 140.56C269.758 142.48 268.798 143.44 266.878 143.44ZM260.542 152.656C258.622 152.656 257.662 151.696 257.662 149.776C257.662 147.856 258.622 146.896 260.542 146.896C262.462 146.896 263.422 147.856 263.422 149.776C263.422 151.696 262.462 152.656 260.542 152.656ZM278.398 125.008C276.478 125.008 275.518 124.048 275.518 122.128C275.518 120.208 276.478 119.248 278.398 119.248C280.318 119.248 281.278 120.208 281.278 122.128C281.278 124.048 280.318 125.008 278.398 125.008ZM272.638 134.224C270.718 134.224 269.758 133.264 269.758 131.344C269.758 129.424 270.718 128.464 272.638 128.464C274.558 128.464 275.518 129.424 275.518 131.344C275.518 133.264 274.558 134.224 272.638 134.224ZM254.494 161.872C252.574 161.872 251.614 160.912 251.614 158.992C251.614 157.072 252.574 156.112 254.494 156.112C256.414 156.112 257.374 157.072 257.374 158.992C257.374 160.912 256.414 161.872 254.494 161.872ZM321.022 60.496C319.102 60.496 318.142 59.536 318.142 57.616C318.142 55.696 319.102 54.736 321.022 54.736C322.942 54.736 323.902 55.696 323.902 57.616C323.902 59.536 322.942 60.496 321.022 60.496Z"/>
</mask>
<path d="M247.87 192.688C245.95 192.688 244.99 191.728 244.99 189.808C244.99 187.888 245.95 186.928 247.87 186.928C249.79 186.928 250.75 187.888 250.75 189.808C250.75 191.728 249.79 192.688 247.87 192.688ZM247.87 204.208C245.95 204.208 244.99 203.248 244.99 201.328C244.99 199.408 245.95 198.448 247.87 198.448C249.79 198.448 250.75 199.408 250.75 201.328C250.75 203.248 249.79 204.208 247.87 204.208ZM247.87 216.016C245.95 216.016 244.99 215.056 244.99 213.136C244.99 211.216 245.95 210.256 247.87 210.256C249.79 210.256 250.75 211.216 250.75 213.136C250.75 215.056 249.79 216.016 247.87 216.016ZM247.87 227.824C245.95 227.824 244.99 226.864 244.99 224.944C244.99 223.024 245.95 222.064 247.87 222.064C249.79 222.064 250.75 223.024 250.75 224.944C250.75 226.864 249.79 227.824 247.87 227.824ZM247.87 170.512C245.95 170.512 244.99 169.552 244.99 167.632C244.99 165.712 245.95 164.752 247.87 164.752C249.79 164.752 250.75 165.712 250.75 167.632C250.75 169.552 249.79 170.512 247.87 170.512ZM247.87 181.744C245.95 181.744 244.99 180.784 244.99 178.864C244.99 176.944 245.95 175.984 247.87 175.984C249.79 175.984 250.75 176.944 250.75 178.864C250.75 180.784 249.79 181.744 247.87 181.744ZM247.87 239.344C245.95 239.344 244.99 238.384 244.99 236.464C244.99 234.544 245.95 233.584 247.87 233.584C249.79 233.584 250.75 234.544 250.75 236.464C250.75 238.384 249.79 239.344 247.87 239.344ZM247.87 250.864C245.95 250.864 244.99 249.904 244.99 247.984C244.99 246.064 245.95 245.104 247.87 245.104C249.79 245.104 250.75 246.064 250.75 247.984C250.75 249.904 249.79 250.864 247.87 250.864ZM168.958 51.28C167.038 51.28 166.078 50.32 166.078 48.4C166.078 46.48 167.038 45.52 168.958 45.52C170.878 45.52 171.838 46.48 171.838 48.4C171.838 50.32 170.878 51.28 168.958 51.28ZM181.054 69.712C179.134 69.712 178.174 68.752 178.174 66.832C178.174 64.912 179.134 63.952 181.054 63.952C182.974 63.952 183.934 64.912 183.934 66.832C183.934 68.752 182.974 69.712 181.054 69.712ZM187.102 78.928C185.182 78.928 184.222 77.968 184.222 76.048C184.222 74.128 185.182 73.168 187.102 73.168C189.022 73.168 189.982 74.128 189.982 76.048C189.982 77.968 189.022 78.928 187.102 78.928ZM204.958 106.576C203.038 106.576 202.078 105.616 202.078 103.696C202.078 101.776 203.038 100.816 204.958 100.816C206.878 100.816 207.838 101.776 207.838 103.696C207.838 105.616 206.878 106.576 204.958 106.576ZM211.006 115.792C209.086 115.792 208.126 114.832 208.126 112.912C208.126 110.992 209.086 110.032 211.006 110.032C212.926 110.032 213.886 110.992 213.886 112.912C213.886 114.832 212.926 115.792 211.006 115.792ZM193.15 88.144C191.23 88.144 190.27 87.184 190.27 85.264C190.27 83.344 191.23 82.384 193.15 82.384C195.07 82.384 196.03 83.344 196.03 85.264C196.03 87.184 195.07 88.144 193.15 88.144ZM198.91 97.36C196.99 97.36 196.03 96.4 196.03 94.48C196.03 92.56 196.99 91.6 198.91 91.6C200.83 91.6 201.79 92.56 201.79 94.48C201.79 96.4 200.83 97.36 198.91 97.36ZM228.862 143.44C226.942 143.44 225.982 142.48 225.982 140.56C225.982 138.64 226.942 137.68 228.862 137.68C230.782 137.68 231.742 138.64 231.742 140.56C231.742 142.48 230.782 143.44 228.862 143.44ZM235.198 152.656C233.278 152.656 232.318 151.696 232.318 149.776C232.318 147.856 233.278 146.896 235.198 146.896C237.118 146.896 238.078 147.856 238.078 149.776C238.078 151.696 237.118 152.656 235.198 152.656ZM217.342 125.008C215.422 125.008 214.462 124.048 214.462 122.128C214.462 120.208 215.422 119.248 217.342 119.248C219.262 119.248 220.222 120.208 220.222 122.128C220.222 124.048 219.262 125.008 217.342 125.008ZM223.102 134.224C221.182 134.224 220.222 133.264 220.222 131.344C220.222 129.424 221.182 128.464 223.102 128.464C225.022 128.464 225.982 129.424 225.982 131.344C225.982 133.264 225.022 134.224 223.102 134.224ZM241.246 161.872C239.326 161.872 238.366 160.912 238.366 158.992C238.366 157.072 239.326 156.112 241.246 156.112C243.166 156.112 244.126 157.072 244.126 158.992C244.126 160.912 243.166 161.872 241.246 161.872ZM174.718 60.496C172.798 60.496 171.838 59.536 171.838 57.616C171.838 55.696 172.798 54.736 174.718 54.736C176.638 54.736 177.598 55.696 177.598 57.616C177.598 59.536 176.638 60.496 174.718 60.496ZM326.782 51.28C324.862 51.28 323.902 50.32 323.902 48.4C323.902 46.48 324.862 45.52 326.782 45.52C328.702 45.52 329.662 46.48 329.662 48.4C329.662 50.32 328.702 51.28 326.782 51.28ZM314.686 69.712C312.766 69.712 311.806 68.752 311.806 66.832C311.806 64.912 312.766 63.952 314.686 63.952C316.606 63.952 317.566 64.912 317.566 66.832C317.566 68.752 316.606 69.712 314.686 69.712ZM308.638 78.928C306.718 78.928 305.758 77.968 305.758 76.048C305.758 74.128 306.718 73.168 308.638 73.168C310.558 73.168 311.518 74.128 311.518 76.048C311.518 77.968 310.558 78.928 308.638 78.928ZM290.782 106.576C288.862 106.576 287.902 105.616 287.902 103.696C287.902 101.776 288.862 100.816 290.782 100.816C292.702 100.816 293.662 101.776 293.662 103.696C293.662 105.616 292.702 106.576 290.782 106.576ZM284.734 115.792C282.814 115.792 281.854 114.832 281.854 112.912C281.854 110.992 282.814 110.032 284.734 110.032C286.654 110.032 287.614 110.992 287.614 112.912C287.614 114.832 286.654 115.792 284.734 115.792ZM302.59 88.144C300.67 88.144 299.71 87.184 299.71 85.264C299.71 83.344 300.67 82.384 302.59 82.384C304.51 82.384 305.47 83.344 305.47 85.264C305.47 87.184 304.51 88.144 302.59 88.144ZM296.83 97.36C294.91 97.36 293.95 96.4 293.95 94.48C293.95 92.56 294.91 91.6 296.83 91.6C298.75 91.6 299.71 92.56 299.71 94.48C299.71 96.4 298.75 97.36 296.83 97.36ZM266.878 143.44C264.958 143.44 263.998 142.48 263.998 140.56C263.998 138.64 264.958 137.68 266.878 137.68C268.798 137.68 269.758 138.64 269.758 140.56C269.758 142.48 268.798 143.44 266.878 143.44ZM260.542 152.656C258.622 152.656 257.662 151.696 257.662 149.776C257.662 147.856 258.622 146.896 260.542 146.896C262.462 146.896 263.422 147.856 263.422 149.776C263.422 151.696 262.462 152.656 260.542 152.656ZM278.398 125.008C276.478 125.008 275.518 124.048 275.518 122.128C275.518 120.208 276.478 119.248 278.398 119.248C280.318 119.248 281.278 120.208 281.278 122.128C281.278 124.048 280.318 125.008 278.398 125.008ZM272.638 134.224C270.718 134.224 269.758 133.264 269.758 131.344C269.758 129.424 270.718 128.464 272.638 128.464C274.558 128.464 275.518 129.424 275.518 131.344C275.518 133.264 274.558 134.224 272.638 134.224ZM254.494 161.872C252.574 161.872 251.614 160.912 251.614 158.992C251.614 157.072 252.574 156.112 254.494 156.112C256.414 156.112 257.374 157.072 257.374 158.992C257.374 160.912 256.414 161.872 254.494 161.872ZM321.022 60.496C319.102 60.496 318.142 59.536 318.142 57.616C318.142 55.696 319.102 54.736 321.022 54.736C322.942 54.736 323.902 55.696 323.902 57.616C323.902 59.536 322.942 60.496 321.022 60.496Z" fill="#FFF9E6" fill-opacity="0.69"/>
<path d="M247.87 192.688C245.95 192.688 244.99 191.728 244.99 189.808C244.99 187.888 245.95 186.928 247.87 186.928C249.79 186.928 250.75 187.888 250.75 189.808C250.75 191.728 249.79 192.688 247.87 192.688ZM247.87 204.208C245.95 204.208 244.99 203.248 244.99 201.328C244.99 199.408 245.95 198.448 247.87 198.448C249.79 198.448 250.75 199.408 250.75 201.328C250.75 203.248 249.79 204.208 247.87 204.208ZM247.87 216.016C245.95 216.016 244.99 215.056 244.99 213.136C244.99 211.216 245.95 210.256 247.87 210.256C249.79 210.256 250.75 211.216 250.75 213.136C250.75 215.056 249.79 216.016 247.87 216.016ZM247.87 227.824C245.95 227.824 244.99 226.864 244.99 224.944C244.99 223.024 245.95 222.064 247.87 222.064C249.79 222.064 250.75 223.024 250.75 224.944C250.75 226.864 249.79 227.824 247.87 227.824ZM247.87 170.512C245.95 170.512 244.99 169.552 244.99 167.632C244.99 165.712 245.95 164.752 247.87 164.752C249.79 164.752 250.75 165.712 250.75 167.632C250.75 169.552 249.79 170.512 247.87 170.512ZM247.87 181.744C245.95 181.744 244.99 180.784 244.99 178.864C244.99 176.944 245.95 175.984 247.87 175.984C249.79 175.984 250.75 176.944 250.75 178.864C250.75 180.784 249.79 181.744 247.87 181.744ZM247.87 239.344C245.95 239.344 244.99 238.384 244.99 236.464C244.99 234.544 245.95 233.584 247.87 233.584C249.79 233.584 250.75 234.544 250.75 236.464C250.75 238.384 249.79 239.344 247.87 239.344ZM247.87 250.864C245.95 250.864 244.99 249.904 244.99 247.984C244.99 246.064 245.95 245.104 247.87 245.104C249.79 245.104 250.75 246.064 250.75 247.984C250.75 249.904 249.79 250.864 247.87 250.864ZM168.958 51.28C167.038 51.28 166.078 50.32 166.078 48.4C166.078 46.48 167.038 45.52 168.958 45.52C170.878 45.52 171.838 46.48 171.838 48.4C171.838 50.32 170.878 51.28 168.958 51.28ZM181.054 69.712C179.134 69.712 178.174 68.752 178.174 66.832C178.174 64.912 179.134 63.952 181.054 63.952C182.974 63.952 183.934 64.912 183.934 66.832C183.934 68.752 182.974 69.712 181.054 69.712ZM187.102 78.928C185.182 78.928 184.222 77.968 184.222 76.048C184.222 74.128 185.182 73.168 187.102 73.168C189.022 73.168 189.982 74.128 189.982 76.048C189.982 77.968 189.022 78.928 187.102 78.928ZM204.958 106.576C203.038 106.576 202.078 105.616 202.078 103.696C202.078 101.776 203.038 100.816 204.958 100.816C206.878 100.816 207.838 101.776 207.838 103.696C207.838 105.616 206.878 106.576 204.958 106.576ZM211.006 115.792C209.086 115.792 208.126 114.832 208.126 112.912C208.126 110.992 209.086 110.032 211.006 110.032C212.926 110.032 213.886 110.992 213.886 112.912C213.886 114.832 212.926 115.792 211.006 115.792ZM193.15 88.144C191.23 88.144 190.27 87.184 190.27 85.264C190.27 83.344 191.23 82.384 193.15 82.384C195.07 82.384 196.03 83.344 196.03 85.264C196.03 87.184 195.07 88.144 193.15 88.144ZM198.91 97.36C196.99 97.36 196.03 96.4 196.03 94.48C196.03 92.56 196.99 91.6 198.91 91.6C200.83 91.6 201.79 92.56 201.79 94.48C201.79 96.4 200.83 97.36 198.91 97.36ZM228.862 143.44C226.942 143.44 225.982 142.48 225.982 140.56C225.982 138.64 226.942 137.68 228.862 137.68C230.782 137.68 231.742 138.64 231.742 140.56C231.742 142.48 230.782 143.44 228.862 143.44ZM235.198 152.656C233.278 152.656 232.318 151.696 232.318 149.776C232.318 147.856 233.278 146.896 235.198 146.896C237.118 146.896 238.078 147.856 238.078 149.776C238.078 151.696 237.118 152.656 235.198 152.656ZM217.342 125.008C215.422 125.008 214.462 124.048 214.462 122.128C214.462 120.208 215.422 119.248 217.342 119.248C219.262 119.248 220.222 120.208 220.222 122.128C220.222 124.048 219.262 125.008 217.342 125.008ZM223.102 134.224C221.182 134.224 220.222 133.264 220.222 131.344C220.222 129.424 221.182 128.464 223.102 128.464C225.022 128.464 225.982 129.424 225.982 131.344C225.982 133.264 225.022 134.224 223.102 134.224ZM241.246 161.872C239.326 161.872 238.366 160.912 238.366 158.992C238.366 157.072 239.326 156.112 241.246 156.112C243.166 156.112 244.126 157.072 244.126 158.992C244.126 160.912 243.166 161.872 241.246 161.872ZM174.718 60.496C172.798 60.496 171.838 59.536 171.838 57.616C171.838 55.696 172.798 54.736 174.718 54.736C176.638 54.736 177.598 55.696 177.598 57.616C177.598 59.536 176.638 60.496 174.718 60.496ZM326.782 51.28C324.862 51.28 323.902 50.32 323.902 48.4C323.902 46.48 324.862 45.52 326.782 45.52C328.702 45.52 329.662 46.48 329.662 48.4C329.662 50.32 328.702 51.28 326.782 51.28ZM314.686 69.712C312.766 69.712 311.806 68.752 311.806 66.832C311.806 64.912 312.766 63.952 314.686 63.952C316.606 63.952 317.566 64.912 317.566 66.832C317.566 68.752 316.606 69.712 314.686 69.712ZM308.638 78.928C306.718 78.928 305.758 77.968 305.758 76.048C305.758 74.128 306.718 73.168 308.638 73.168C310.558 73.168 311.518 74.128 311.518 76.048C311.518 77.968 310.558 78.928 308.638 78.928ZM290.782 106.576C288.862 106.576 287.902 105.616 287.902 103.696C287.902 101.776 288.862 100.816 290.782 100.816C292.702 100.816 293.662 101.776 293.662 103.696C293.662 105.616 292.702 106.576 290.782 106.576ZM284.734 115.792C282.814 115.792 281.854 114.832 281.854 112.912C281.854 110.992 282.814 110.032 284.734 110.032C286.654 110.032 287.614 110.992 287.614 112.912C287.614 114.832 286.654 115.792 284.734 115.792ZM302.59 88.144C300.67 88.144 299.71 87.184 299.71 85.264C299.71 83.344 300.67 82.384 302.59 82.384C304.51 82.384 305.47 83.344 305.47 85.264C305.47 87.184 304.51 88.144 302.59 88.144ZM296.83 97.36C294.91 97.36 293.95 96.4 293.95 94.48C293.95 92.56 294.91 91.6 296.83 91.6C298.75 91.6 299.71 92.56 299.71 94.48C299.71 96.4 298.75 97.36 296.83 97.36ZM266.878 143.44C264.958 143.44 263.998 142.48 263.998 140.56C263.998 138.64 264.958 137.68 266.878 137.68C268.798 137.68 269.758 138.64 269.758 140.56C269.758 142.48 268.798 143.44 266.878 143.44ZM260.542 152.656C258.622 152.656 257.662 151.696 257.662 149.776C257.662 147.856 258.622 146.896 260.542 146.896C262.462 146.896 263.422 147.856 263.422 149.776C263.422 151.696 262.462 152.656 260.542 152.656ZM278.398 125.008C276.478 125.008 275.518 124.048 275.518 122.128C275.518 120.208 276.478 119.248 278.398 119.248C280.318 119.248 281.278 120.208 281.278 122.128C281.278 124.048 280.318 125.008 278.398 125.008ZM272.638 134.224C270.718 134.224 269.758 133.264 269.758 131.344C269.758 129.424 270.718 128.464 272.638 128.464C274.558 128.464 275.518 129.424 275.518 131.344C275.518 133.264 274.558 134.224 272.638 134.224ZM254.494 161.872C252.574 161.872 251.614 160.912 251.614 158.992C251.614 157.072 252.574 156.112 254.494 156.112C256.414 156.112 257.374 157.072 257.374 158.992C257.374 160.912 256.414 161.872 254.494 161.872ZM321.022 60.496C319.102 60.496 318.142 59.536 318.142 57.616C318.142 55.696 319.102 54.736 321.022 54.736C322.942 54.736 323.902 55.696 323.902 57.616C323.902 59.536 322.942 60.496 321.022 60.496Z" stroke="#FDF6DF" stroke-width="2" mask="url(#path-2-outside-1_2_28)"/>
<defs>
<filter id="filter0_d_2_28" x="0.444305" y="16.2924" width="495.111" height="255.415" filterUnits="userSpaceOnUse" color-interpolation-filters="sRGB">
<feFlood flood-opacity="0" result="BackgroundImageFix"/>
<feColorMatrix in="SourceAlpha" type="matrix" values="0 0 0 0 0 0 0 0 0 0 0 0 0 0 0 0 0 0 127 0" result="hardAlpha"/>
<feOffset/>
<feGaussianBlur stdDeviation="1.5"/>
<feColorMatrix type="matrix" values="0 0 0 0 0.991667 0 0 0 0 0.966214 0 0 0 0 0.875972 0 0 0 1 0"/>
<feBlend mode="normal" in2="BackgroundImageFix" result="effect1_dropShadow_2_28"/>
<feBlend mode="normal" in="SourceGraphic" in2="effect1_dropShadow_2_28" result="shape"/>
</filter>
</defs>
</svg>
