<svg width="1440" height="21" viewBox="0 0 1440 21" fill="none" xmlns="http://www.w3.org/2000/svg">
<line y1="1.5" x2="1440" y2="1.5" stroke="#444035"/>
<rect width="8" height="5" transform="matrix(-1 0 0 1 57 1)" fill="#444035"/>
<circle cx="76.5" cy="9.5" r="2.5" fill="#444035"/>
<circle cx="87.5" cy="9.5" r="2.5" fill="#444035"/>
<circle cx="81.5" cy="18.5" r="2.5" fill="#444035"/>
<rect width="8" height="5" transform="matrix(-1 0 0 1 114 1)" fill="#444035"/>
<circle cx="133.5" cy="9.5" r="2.5" fill="#444035"/>
<circle cx="144.5" cy="9.5" r="2.5" fill="#444035"/>
<circle cx="138.5" cy="18.5" r="2.5" fill="#444035"/>
<rect width="8" height="5" transform="matrix(-1 0 0 1 173 1)" fill="#444035"/>
<circle cx="192.5" cy="9.5" r="2.5" fill="#444035"/>
<circle cx="203.5" cy="9.5" r="2.5" fill="#444035"/>
<circle cx="197.5" cy="18.5" r="2.5" fill="#444035"/>
<rect width="8" height="5" transform="matrix(-1 0 0 1 230 1)" fill="#444035"/>
<circle cx="249.5" cy="9.5" r="2.5" fill="#444035"/>
<circle cx="260.5" cy="9.5" r="2.5" fill="#444035"/>
<circle cx="254.5" cy="18.5" r="2.5" fill="#444035"/>
<rect width="8" height="5" transform="matrix(-1 0 0 1 404 1)" fill="#444035"/>
<circle cx="423.5" cy="9.5" r="2.5" fill="#444035"/>
<circle cx="434.5" cy="9.5" r="2.5" fill="#444035"/>
<circle cx="428.5" cy="18.5" r="2.5" fill="#444035"/>
<rect width="8" height="5" transform="matrix(-1 0 0 1 461 1)" fill="#444035"/>
<circle cx="480.5" cy="9.5" r="2.5" fill="#444035"/>
<circle cx="491.5" cy="9.5" r="2.5" fill="#444035"/>
<circle cx="485.5" cy="18.5" r="2.5" fill="#444035"/>
<rect width="8" height="5" transform="matrix(-1 0 0 1 288 1)" fill="#444035"/>
<circle cx="307.5" cy="9.5" r="2.5" fill="#444035"/>
<circle cx="318.5" cy="9.5" r="2.5" fill="#444035"/>
<circle cx="312.5" cy="18.5" r="2.5" fill="#444035"/>
<rect width="8" height="5" transform="matrix(-1 0 0 1 345 1)" fill="#444035"/>
<circle cx="364.5" cy="9.5" r="2.5" fill="#444035"/>
<circle cx="375.5" cy="9.5" r="2.5" fill="#444035"/>
<circle cx="369.5" cy="18.5" r="2.5" fill="#444035"/>
<rect width="8" height="5" transform="matrix(-1 0 0 1 521 0)" fill="#444035"/>
<circle cx="540.5" cy="8.5" r="2.5" fill="#444035"/>
<circle cx="551.5" cy="8.5" r="2.5" fill="#444035"/>
<circle cx="545.5" cy="17.5" r="2.5" fill="#444035"/>
<rect width="8" height="5" transform="matrix(-1 0 0 1 578 0)" fill="#444035"/>
<circle cx="597.5" cy="8.5" r="2.5" fill="#444035"/>
<circle cx="608.5" cy="8.5" r="2.5" fill="#444035"/>
<circle cx="602.5" cy="17.5" r="2.5" fill="#444035"/>
<rect width="8" height="5" transform="matrix(-1 0 0 1 637 0)" fill="#444035"/>
<circle cx="656.5" cy="8.5" r="2.5" fill="#444035"/>
<circle cx="667.5" cy="8.5" r="2.5" fill="#444035"/>
<circle cx="661.5" cy="17.5" r="2.5" fill="#444035"/>
<rect width="8" height="5" transform="matrix(-1 0 0 1 694 0)" fill="#444035"/>
<circle cx="713.5" cy="8.5" r="2.5" fill="#444035"/>
<circle cx="724.5" cy="8.5" r="2.5" fill="#444035"/>
<circle cx="718.5" cy="17.5" r="2.5" fill="#444035"/>
<rect width="8" height="5" transform="matrix(-1 0 0 1 868 0)" fill="#444035"/>
<circle cx="887.5" cy="8.5" r="2.5" fill="#444035"/>
<circle cx="898.5" cy="8.5" r="2.5" fill="#444035"/>
<circle cx="892.5" cy="17.5" r="2.5" fill="#444035"/>
<rect width="8" height="5" transform="matrix(-1 0 0 1 925 0)" fill="#444035"/>
<circle cx="944.5" cy="8.5" r="2.5" fill="#444035"/>
<circle cx="955.5" cy="8.5" r="2.5" fill="#444035"/>
<circle cx="949.5" cy="17.5" r="2.5" fill="#444035"/>
<rect width="8" height="5" transform="matrix(-1 0 0 1 752 0)" fill="#444035"/>
<circle cx="771.5" cy="8.5" r="2.5" fill="#444035"/>
<circle cx="782.5" cy="8.5" r="2.5" fill="#444035"/>
<circle cx="776.5" cy="17.5" r="2.5" fill="#444035"/>
<rect width="8" height="5" transform="matrix(-1 0 0 1 809 0)" fill="#444035"/>
<circle cx="828.5" cy="8.5" r="2.5" fill="#444035"/>
<circle cx="839.5" cy="8.5" r="2.5" fill="#444035"/>
<circle cx="833.5" cy="17.5" r="2.5" fill="#444035"/>
<rect width="8" height="5" transform="matrix(-1 0 0 1 985 0)" fill="#444035"/>
<circle cx="1004.5" cy="8.5" r="2.5" fill="#444035"/>
<circle cx="1015.5" cy="8.5" r="2.5" fill="#444035"/>
<circle cx="1009.5" cy="17.5" r="2.5" fill="#444035"/>
<rect width="8" height="5" transform="matrix(-1 0 0 1 1042 0)" fill="#444035"/>
<circle cx="1061.5" cy="8.5" r="2.5" fill="#444035"/>
<circle cx="1072.5" cy="8.5" r="2.5" fill="#444035"/>
<circle cx="1066.5" cy="17.5" r="2.5" fill="#444035"/>
<rect width="8" height="5" transform="matrix(-1 0 0 1 1101 0)" fill="#444035"/>
<circle cx="1120.5" cy="8.5" r="2.5" fill="#444035"/>
<circle cx="1131.5" cy="8.5" r="2.5" fill="#444035"/>
<circle cx="1125.5" cy="17.5" r="2.5" fill="#444035"/>
<rect width="8" height="5" transform="matrix(-1 0 0 1 1158 0)" fill="#444035"/>
<circle cx="1177.5" cy="8.5" r="2.5" fill="#444035"/>
<circle cx="1188.5" cy="8.5" r="2.5" fill="#444035"/>
<circle cx="1182.5" cy="17.5" r="2.5" fill="#444035"/>
<rect width="8" height="5" transform="matrix(-1 0 0 1 1332 0)" fill="#444035"/>
<circle cx="1351.5" cy="8.5" r="2.5" fill="#444035"/>
<circle cx="1362.5" cy="8.5" r="2.5" fill="#444035"/>
<circle cx="1356.5" cy="17.5" r="2.5" fill="#444035"/>
<rect width="8" height="5" transform="matrix(-1 0 0 1 1389 0)" fill="#444035"/>
<rect width="8" height="5" transform="matrix(-1 0 0 1 1216 0)" fill="#444035"/>
<circle cx="1235.5" cy="8.5" r="2.5" fill="#444035"/>
<circle cx="1246.5" cy="8.5" r="2.5" fill="#444035"/>
<circle cx="1240.5" cy="17.5" r="2.5" fill="#444035"/>
<rect width="8" height="5" transform="matrix(-1 0 0 1 1273 0)" fill="#444035"/>
<circle cx="1292.5" cy="8.5" r="2.5" fill="#444035"/>
<circle cx="1303.5" cy="8.5" r="2.5" fill="#444035"/>
<circle cx="1297.5" cy="17.5" r="2.5" fill="#444035"/>
</svg>
